<svg width="current" height="current" viewBox="0 0 18 18" fill="none" xmlns="http://www.w3.org/2000/svg">
<g clip-path="url(#clip0_1331_10)">
<path fill-rule="evenodd" clip-rule="evenodd" d="M9.00183 0C4.03326 0 0.00463867 4.02862 0.00463867 8.99831C0.00463867 12.9735 2.58201 16.3463 6.15839 17.5365C6.60839 17.6186 6.75014 17.352 6.75014 17.1135C6.75014 16.8997 6.75464 16.3024 6.75014 15.5514C4.24758 16.0954 3.72895 14.3663 3.72895 14.3663C3.32001 13.3268 2.73051 13.05 2.73051 13.05C1.91376 12.492 2.79183 12.5027 2.79183 12.5027C3.69464 12.5662 4.17051 13.4302 4.17051 13.4302C4.9732 14.8044 6.27595 14.4073 6.78839 14.1778C6.87051 13.5962 7.10339 13.1996 7.36045 12.9746C5.36245 12.7474 3.26208 11.9756 3.26208 8.5275C3.26208 7.54481 3.61251 6.74213 4.18795 6.11325C4.09514 5.886 3.78576 4.97081 4.27626 3.73162C4.27626 3.73162 5.0317 3.48975 6.75014 4.65469C7.46789 4.455 8.23795 4.35544 9.00295 4.35206C9.76739 4.35544 10.5369 4.455 11.2558 4.65469C12.9742 3.49031 13.7285 3.73162 13.7285 3.73162C14.219 4.97081 13.9102 5.886 13.818 6.11325C14.3934 6.74213 14.7427 7.54481 14.7427 8.5275C14.7427 11.9846 12.639 12.7451 10.6342 12.9673C10.9571 13.2457 11.2501 13.7858 11.2501 14.625C11.2501 15.75 11.2501 16.8199 11.2501 17.1157C11.2501 17.3565 11.3953 17.6226 11.852 17.5354C15.425 16.3434 18.0001 12.9724 18.0001 8.99831C18.0001 4.02862 13.9715 0 9.00183 0Z" fill="#E2E8F0"/>
</g>
<defs>
<clipPath id="clip0_1331_10">
<rect width="18" height="18" fill="white"/>
</clipPath>
</defs>
</svg>
