<svg width="24" height="24" viewBox="0 0 24 24" fill="none" xmlns="http://www.w3.org/2000/svg">
<path d="M17.5383 20.472V13.2194C17.5383 13.2194 17.1427 11.703 15.6922 11.7689C14.2417 11.8349 13.7802 12.0656 13.1208 12.8568V20.472H9.39569V8.96684H13.0879V10.6481C13.0879 10.6481 14.2746 8.30752 16.7801 8.47235C19.0547 8.63718 20.7689 10.0217 21.1316 13.0546H21.2305V20.472H17.5383ZM4.97825 7.48337C3.75851 7.48337 2.76953 6.49439 2.76953 5.24169C2.76953 4.02194 3.75851 3 4.97825 3C6.19799 3 7.18697 3.98898 7.18697 5.24169C7.18697 6.46143 6.19799 7.48337 4.97825 7.48337ZM6.82434 20.472H3.13216V8.96684H6.82434V20.472Z" fill="#E2E8F0"/>
</svg>
