<svg width="24" height="24" viewBox="0 0 24 24" fill="none" xmlns="http://www.w3.org/2000/svg">
<g clip-path="url(#clip0_1331_12)">
<path d="M22.4475 3.9529C21.3787 2.91752 20.055 2.40002 18.6975 2.40002C17.34 2.40002 15.984 2.91752 14.949 3.9529L13.323 5.5789C13.8896 5.87935 14.4281 6.23815 14.8946 6.70465C15.0126 6.82262 15.1158 6.94907 15.2224 7.07357L16.6459 5.65007C17.1937 5.1019 17.8912 4.80002 18.6975 4.80002C19.4726 4.80002 20.2012 5.10179 20.7491 5.64977C21.297 6.19765 21.5989 6.92627 21.5989 7.7014C21.5989 8.47652 21.297 9.20515 20.7491 9.75302L15.7504 14.7518C15.2062 15.2663 14.475 15.6 13.7025 15.6C12.93 15.6 12.1987 15.2982 11.6509 14.7503C11.1 14.2013 10.7662 13.4738 10.7662 12.6975C10.7662 11.9213 11.068 11.1938 11.616 10.6459L11.7825 10.515C11.7037 10.3688 11.6212 10.2188 11.5012 10.0988C11.1787 9.77627 10.755 9.60002 10.2975 9.60002C9.85012 9.60002 9.43125 9.77492 9.11212 10.0864C7.9605 12.1099 8.226 14.7214 9.95175 16.4464C10.9875 17.4825 12.345 18 13.7025 18C15.0592 18 16.416 17.4825 17.451 16.4471L22.4475 11.4488C23.5144 10.3819 24.0315 8.9734 23.9989 7.57502C23.9662 6.22877 23.4525 4.95602 22.4475 3.9529ZM8.775 16.9275L7.35375 18.3488C6.80625 18.8663 6.075 19.2 5.3025 19.2C4.52737 19.2 3.79875 18.8983 3.25087 18.3503C2.703 17.8024 2.40112 17.0738 2.40112 16.2987C2.40112 15.5235 2.70296 14.7949 3.25087 14.247L8.24962 9.24827C8.79375 8.70002 9.49125 8.40002 10.2975 8.40002C11.1037 8.40002 11.8012 8.70182 12.3491 9.24977C12.8974 9.79765 13.1989 10.5263 13.1989 11.3014C13.1989 12.0765 12.8971 12.8051 12.3491 13.353L12.2175 13.485C12.296 13.6327 12.3757 13.7811 12.4974 13.9031C12.8212 14.2238 13.2487 14.4 13.7025 14.4C14.1499 14.4 14.5687 14.2251 14.8879 13.9136C16.0395 11.8901 15.774 9.27865 14.0482 7.55365C12.9787 6.51752 11.655 6.00002 10.2975 6.00002C8.94 6.00002 7.58625 6.51752 6.55125 7.55252L1.55287 12.5513C0.517875 13.5863 0 14.943 0 16.2998C-3.74998e-06 17.6565 0.5175 19.0133 1.55287 20.0487C2.58787 21.0825 3.945 21.6 5.3025 21.6C6.65925 21.6 8.016 21.0825 9.051 20.0471L10.677 18.4212C10.1104 18.1207 9.57187 17.7619 9.10537 17.2954C8.985 17.1788 8.88375 17.0513 8.775 16.9275Z" fill="#E2E8F0"/>
</g>
<defs>
<clipPath id="clip0_1331_12">
<rect width="24" height="24" fill="white"/>
</clipPath>
</defs>
</svg>
