<svg width="18" height="18" viewBox="0 0 18 18" fill="none" xmlns="http://www.w3.org/2000/svg">
<g clip-path="url(#clip0_1331_12)">
<path d="M16.8356 2.96471C16.0341 2.18817 15.0413 1.80005 14.0231 1.80005C13.005 1.80005 11.988 2.18817 11.2118 2.96471L9.99225 4.18421C10.4172 4.40954 10.8211 4.67864 11.171 5.02852C11.2595 5.117 11.3369 5.21184 11.4168 5.30521L12.4845 4.23759C12.8953 3.82646 13.4184 3.60005 14.0231 3.60005C14.6045 3.60005 15.1509 3.82637 15.5618 4.23736C15.9728 4.64827 16.1992 5.19474 16.1992 5.77608C16.1992 6.35742 15.9728 6.90389 15.5618 7.3148L11.8128 11.0639C11.4047 11.4497 10.8563 11.7 10.2769 11.7C9.6975 11.7 9.14906 11.4737 8.73816 11.0627C8.325 10.651 8.07469 10.1054 8.07469 9.52317C8.07469 8.94099 8.30101 8.39536 8.712 7.98446L8.83688 7.8863C8.77781 7.77661 8.71594 7.66411 8.62594 7.57411C8.38406 7.33224 8.06625 7.20005 7.72313 7.20005C7.38759 7.20005 7.07344 7.33122 6.83409 7.56483C5.97038 9.08246 6.1695 11.0411 7.46381 12.3348C8.24063 13.1119 9.25875 13.5 10.2769 13.5C11.2944 13.5 12.312 13.1119 13.0883 12.3354L16.8356 8.58661C17.6358 7.78646 18.0236 6.73008 17.9992 5.6813C17.9747 4.67161 17.5894 3.71705 16.8356 2.96471ZM6.58125 12.6957L5.51531 13.7616C5.10469 14.1497 4.55625 14.4 3.97687 14.4C3.39553 14.4 2.84906 14.1737 2.43816 13.7627C2.02725 13.3518 1.80084 12.8054 1.80084 12.224C1.80084 11.6427 2.02722 11.0962 2.43816 10.6853L6.18722 6.93624C6.59531 6.52505 7.11844 6.30005 7.72313 6.30005C8.32781 6.30005 8.85094 6.5264 9.26184 6.93736C9.67303 7.34827 9.89916 7.89474 9.89916 8.47608C9.89916 9.05742 9.67283 9.60389 9.26184 10.0148L9.16313 10.1138C9.22202 10.2246 9.28179 10.3358 9.37308 10.4274C9.61594 10.6679 9.93656 10.8 10.2769 10.8C10.6124 10.8 10.9266 10.6689 11.1659 10.4353C12.0296 8.91764 11.8305 6.95902 10.5362 5.66527C9.73406 4.88817 8.74125 4.50005 7.72313 4.50005C6.705 4.50005 5.68969 4.88817 4.91344 5.66442L1.16466 9.41349C0.388406 10.1897 0 11.2073 0 12.2249C-2.81248e-06 13.2424 0.388125 14.26 1.16466 15.0365C1.94091 15.8119 2.95875 16.2 3.97687 16.2C4.99444 16.2 6.012 15.8119 6.78825 15.0354L8.00775 13.8159C7.58278 13.5906 7.17891 13.3215 6.82903 12.9716C6.73875 12.8841 6.66281 12.7885 6.58125 12.6957Z" fill="#E2E8F0"/>
</g>
<defs>
<clipPath id="clip0_1331_12">
<rect width="18" height="18" fill="white"/>
</clipPath>
</defs>
</svg>
